<svg width="200" height="200" xmlns="http://www.w3.org/2000/svg"><g transform="matrix(1 0 0 1 100 100)"  ><g style=""   ><g transform="matrix(1 0 0 1 0 31.4)" clip-path="url(#CLIPPATH_344)"  ><clipPath id="CLIPPATH_344" ><rect transform="matrix(1 0 0 1 0 -31.4)" id="clip0_106_7" x="-100" y="-100" rx="0" ry="0" width="200" height="200" /></clipPath><path style="stroke: none; stroke-width: 1; stroke-dasharray: none; stroke-linecap: butt; stroke-dashoffset: 0; stroke-linejoin: miter; stroke-miterlimit: 4; fill: rgb(109,49,237); fill-rule: nonzero; opacity: 1;"  transform=" translate(-100, -131.4)" d="M 200 62.8 L 200 91.93 C 200 151.61 155.23 200 100 200 C 44.77 200 0 151.61 0 91.93 L 0 62.8 L 104.38 170.74 L 200 62.8 Z" stroke-linecap="round" /></g><g transform="matrix(1 0 0 1 -47.81 18.06)" clip-path="url(#CLIPPATH_345)"  ><linearGradient id="SVGID_paint0_linear_106_7_343" gradientUnits="userSpaceOnUse" gradientTransform="matrix(1 0 0 1 0 0)"  x1="114.71" y1="191.29" x2="32.85" y2="95.42"><stop offset="0%" style="stop-color:rgb(176,59,131);stop-opacity: 1"/><stop offset="100%" style="stop-color:rgb(111,74,158);stop-opacity: 1"/></linearGradient><clipPath id="CLIPPATH_345" ><rect transform="matrix(1 0 0 1 47.81 -18.06)" id="clip0_106_7" x="-100" y="-100" rx="0" ry="0" width="200" height="200" /></clipPath><path style="stroke: none; stroke-width: 1; stroke-dasharray: none; stroke-linecap: butt; stroke-dashoffset: 0; stroke-linejoin: miter; stroke-miterlimit: 4; fill: url(#SVGID_paint0_linear_106_7_343); fill-rule: nonzero; opacity: 1;"  transform=" translate(-52.19, -118.06)" d="M 4.38 62.67 C 3.12 62.67 1.87 62.67 0.63 62.77 C 0.212689 66.4419 0.00235673 70.1344 0 73.83 C 0 128.83 44.77 173.45 100 173.45 C 101.26 173.45 102.5 173.45 103.75 173.36 C 104.162 169.688 104.373 165.995 104.38 162.3 C 104.38 107.28 59.61 62.67 4.38 62.67 Z" stroke-linecap="round" /></g><g transform="matrix(1 0 0 1 0 18.06)" clip-path="url(#CLIPPATH_346)"  ><clipPath id="CLIPPATH_346" ><rect transform="matrix(1 0 0 1 0 -18.06)" id="clip0_106_7" x="-100" y="-100" rx="0" ry="0" width="200" height="200" /></clipPath><path style="stroke: none; stroke-width: 1; stroke-dasharray: none; stroke-linecap: butt; stroke-dashoffset: 0; stroke-linejoin: miter; stroke-miterlimit: 4; fill: rgb(255,86,165); fill-rule: nonzero; opacity: 1;"  transform=" translate(-100, -118.06)" d="M 199.38 62.8 C 146.47 65.4 104.38 108.95 104.38 162.3 C 104.38 107.3 59.61 62.67 4.38 62.67 C 3.12 62.67 1.87 62.67 0.63 62.77 C 0.212689 66.4419 0.00235673 70.1344 0 73.83 C 0 128.83 44.77 173.45 100 173.45 C 101.26 173.45 102.5 173.45 103.75 173.36 C 104.17 173.36 104.59 173.36 105 173.36 C 157.91 170.76 200 127.21 200 73.86 C 199.997 70.1647 199.79 66.4724 199.38 62.8 Z" stroke-linecap="round" /></g><g transform="matrix(1 0 0 1 0 -64)" clip-path="url(#CLIPPATH_347)"  ><clipPath id="CLIPPATH_347" ><rect transform="matrix(1 0 0 1 0 64)" id="clip0_106_7" x="-100" y="-100" rx="0" ry="0" width="200" height="200" /></clipPath><path style="stroke: none; stroke-width: 1; stroke-dasharray: none; stroke-linecap: butt; stroke-dashoffset: 0; stroke-linejoin: miter; stroke-miterlimit: 4; fill: rgb(239,54,7); fill-rule: nonzero; opacity: 1;"  transform=" translate(-100, -36)" d="M 100 72 C 119.882 72 136 55.8823 136 36 C 136 16.1177 119.882 0 100 0 C 80.1177 0 64 16.1177 64 36 C 64 55.8823 80.1177 72 100 72 Z" stroke-linecap="round" /></g></g></g></svg>